<svg width="17" height="19" viewBox="0 0 17 19" fill="none" xmlns="http://www.w3.org/2000/svg">
<path d="M4.76562 10.8395L6.59768 13.7973C6.70719 13.9741 6.76562 14.1819 6.76562 14.3944V17.2975C6.76562 17.8919 7.21334 18.3738 7.76562 18.3738H8.76562C9.87019 18.3738 10.7656 17.41 10.7656 16.2211V10.8395M8.76562 10.8395H13.5311C14.7231 10.8395 15.6505 9.7243 15.5189 8.44915L14.9633 3.06752C14.8508 1.97735 13.9946 1.15259 12.9755 1.15259H9.17984C8.91462 1.15259 8.66027 1.26599 8.47273 1.46784L8.05852 1.91367C7.87098 2.11552 7.61663 2.22891 7.35141 2.22891H4.76562M1.76562 2.22891H4.61562C4.69847 2.22891 4.76562 2.3012 4.76562 2.39036V10.6781C4.76562 10.7672 4.69847 10.8395 4.61562 10.8395H1.76562C1.21334 10.8395 0.765625 10.3576 0.765625 9.76319V3.30524C0.765625 2.7108 1.21334 2.22891 1.76562 2.22891Z" stroke="#33363F" stroke-opacity="0.5" stroke-linecap="round"/>
</svg>
