<svg width="62" height="30" viewBox="0 0 62 30" fill="none" xmlns="http://www.w3.org/2000/svg">
<g filter="url(#filter0_d_115_129)">
<rect x="1" width="60" height="25" rx="10" fill="#7700FF" shape-rendering="crispEdges"/>
<path d="M17.96 9.02L15.4 16H13.7L11.14 9.02H12.64L14.56 14.57L16.47 9.02H17.96ZM19.5094 9.8C19.2627 9.8 19.056 9.72333 18.8894 9.57C18.7294 9.41 18.6494 9.21333 18.6494 8.98C18.6494 8.74667 18.7294 8.55333 18.8894 8.4C19.056 8.24 19.2627 8.16 19.5094 8.16C19.756 8.16 19.9594 8.24 20.1194 8.4C20.286 8.55333 20.3694 8.74667 20.3694 8.98C20.3694 9.21333 20.286 9.41 20.1194 9.57C19.9594 9.72333 19.756 9.8 19.5094 9.8ZM20.1994 10.46V16H18.7994V10.46H20.1994ZM26.7326 13.11C26.7326 13.31 26.7192 13.49 26.6926 13.65H22.6426C22.6759 14.05 22.8159 14.3633 23.0626 14.59C23.3092 14.8167 23.6126 14.93 23.9726 14.93C24.4926 14.93 24.8626 14.7067 25.0826 14.26H26.5926C26.4326 14.7933 26.1259 15.2333 25.6726 15.58C25.2192 15.92 24.6626 16.09 24.0026 16.09C23.4692 16.09 22.9892 15.9733 22.5626 15.74C22.1426 15.5 21.8126 15.1633 21.5726 14.73C21.3392 14.2967 21.2226 13.7967 21.2226 13.23C21.2226 12.6567 21.3392 12.1533 21.5726 11.72C21.8059 11.2867 22.1326 10.9533 22.5526 10.72C22.9726 10.4867 23.4559 10.37 24.0026 10.37C24.5292 10.37 24.9992 10.4833 25.4126 10.71C25.8326 10.9367 26.1559 11.26 26.3826 11.68C26.6159 12.0933 26.7326 12.57 26.7326 13.11ZM25.2826 12.71C25.2759 12.35 25.1459 12.0633 24.8926 11.85C24.6392 11.63 24.3292 11.52 23.9626 11.52C23.6159 11.52 23.3226 11.6267 23.0826 11.84C22.8492 12.0467 22.7059 12.3367 22.6526 12.71H25.2826ZM35.4345 10.46L33.8145 16H32.3045L31.2945 12.13L30.2845 16H28.7645L27.1345 10.46H28.5545L29.5345 14.68L30.5945 10.46H32.0745L33.1145 14.67L34.0945 10.46H35.4345ZM38.2148 13.21C38.2148 12.65 38.3248 12.1533 38.5448 11.72C38.7714 11.2867 39.0748 10.9533 39.4548 10.72C39.8414 10.4867 40.2714 10.37 40.7448 10.37C41.1581 10.37 41.5181 10.4533 41.8248 10.62C42.1381 10.7867 42.3881 10.9967 42.5748 11.25V10.46H43.9848V16H42.5748V15.19C42.3948 15.45 42.1448 15.6667 41.8248 15.84C41.5114 16.0067 41.1481 16.09 40.7348 16.09C40.2681 16.09 39.8414 15.97 39.4548 15.73C39.0748 15.49 38.7714 15.1533 38.5448 14.72C38.3248 14.28 38.2148 13.7767 38.2148 13.21ZM42.5748 13.23C42.5748 12.89 42.5081 12.6 42.3748 12.36C42.2414 12.1133 42.0614 11.9267 41.8348 11.8C41.6081 11.6667 41.3648 11.6 41.1048 11.6C40.8448 11.6 40.6048 11.6633 40.3848 11.79C40.1648 11.9167 39.9848 12.1033 39.8448 12.35C39.7114 12.59 39.6448 12.8767 39.6448 13.21C39.6448 13.5433 39.7114 13.8367 39.8448 14.09C39.9848 14.3367 40.1648 14.5267 40.3848 14.66C40.6114 14.7933 40.8514 14.86 41.1048 14.86C41.3648 14.86 41.6081 14.7967 41.8348 14.67C42.0614 14.5367 42.2414 14.35 42.3748 14.11C42.5081 13.8633 42.5748 13.57 42.5748 13.23ZM46.7521 8.6V16H45.3521V8.6H46.7521ZM49.5353 8.6V16H48.1353V8.6H49.5353Z" fill="white"/>
</g>
<defs>
<filter id="filter0_d_115_129" x="0.4" y="0" width="61.2" height="29.6" filterUnits="userSpaceOnUse" color-interpolation-filters="sRGB">
<feFlood flood-opacity="0" result="BackgroundImageFix"/>
<feColorMatrix in="SourceAlpha" type="matrix" values="0 0 0 0 0 0 0 0 0 0 0 0 0 0 0 0 0 0 127 0" result="hardAlpha"/>
<feOffset dy="4"/>
<feGaussianBlur stdDeviation="0.3"/>
<feComposite in2="hardAlpha" operator="out"/>
<feColorMatrix type="matrix" values="0 0 0 0 0.466667 0 0 0 0 0 0 0 0 0 1 0 0 0 1 0"/>
<feBlend mode="normal" in2="BackgroundImageFix" result="effect1_dropShadow_115_129"/>
<feBlend mode="normal" in="SourceGraphic" in2="effect1_dropShadow_115_129" result="shape"/>
</filter>
</defs>
</svg>
