<svg width="25" height="25" viewBox="0 0 25 25" fill="none" xmlns="http://www.w3.org/2000/svg">
<rect width="25" height="25" rx="12.5" fill="#7700FF" fill-opacity="0.1"/>
<path d="M13.8319 7.102C13.4419 6.97602 13.0248 6.90796 12.5925 6.90796C10.6261 6.90796 8.97423 8.31606 8.75709 10.1773L8.57869 11.7062C8.48961 12.4454 8.23695 13.1583 7.83737 13.7978L7.41749 14.4643C7.05514 15.0395 6.87396 15.327 6.91307 15.5631C6.9391 15.7202 7.02399 15.863 7.15203 15.9651C7.34447 16.1185 7.69662 16.1185 8.40091 16.1185H16.784C17.4883 16.1185 17.8404 16.1185 18.0329 15.9651C18.1609 15.863 18.2458 15.7202 18.2718 15.5631C18.311 15.327 18.1298 15.0395 17.7674 14.4643L17.3475 13.7978C17.0324 13.2934 16.8086 12.7434 16.6844 12.1707C14.8012 12.1439 13.2832 10.6816 13.2832 8.88164C13.2832 8.22592 13.4847 7.61502 13.8319 7.102Z" fill="black" fill-opacity="0.4"/>
<path d="M15.5449 8.2164C15.4246 8.41159 15.3556 8.63894 15.3556 8.88164C15.3556 9.5065 15.813 10.0296 16.4262 10.164C16.3368 9.422 16.0193 8.75257 15.5449 8.2164Z" fill="#FF0000" fill-opacity="0.7"/>
<path d="M10.5201 16.1185C10.5201 16.3777 10.5737 16.6343 10.6778 16.8738C10.782 17.1132 10.9346 17.3308 11.1271 17.5141C11.3195 17.6974 11.548 17.8427 11.7994 17.9419C12.0508 18.0411 12.3203 18.0922 12.5925 18.0922C12.8646 18.0922 13.1341 18.0411 13.3855 17.9419C13.637 17.8427 13.8654 17.6974 14.0578 17.5141C14.2503 17.3308 14.4029 17.1132 14.5071 16.8738C14.6112 16.6343 14.6648 16.3777 14.6648 16.1185H10.5201Z" fill="black" fill-opacity="0.4"/>
<path d="M18.1188 8.88164C18.1188 9.60833 17.5002 10.1974 16.7372 10.1974C15.9742 10.1974 15.3556 9.60833 15.3556 8.88164C15.3556 8.15495 15.9742 7.56585 16.7372 7.56585C17.5002 7.56585 18.1188 8.15495 18.1188 8.88164Z" fill="white"/>
</svg>
