<svg width="150" height="150" viewBox="0 0 150 150" fill="none" xmlns="http://www.w3.org/2000/svg">
<path d="M40.4545 17.3289L41.8401 16.6424C41.3698 16.8331 40.9122 17.0747 40.4545 17.3289Z" stroke="white" stroke-width="2" stroke-linecap="round" stroke-linejoin="round"/>
<path d="M91.3782 61.1593C89.9799 54.9686 87.4375 48.6892 83.7384 42.3079C80.5223 36.7655 76.9375 32.0113 72.9714 28.0325C69.6155 24.6511 65.9926 21.8417 62.0901 19.5917C60.5519 18.7018 59.0521 17.9391 57.5902 17.3289C51.6411 14.812 46.4036 14.5831 41.8401 16.6424L40.4545 17.3289C34.5181 20.7103 31.5562 27.2822 31.5562 37.0068C31.5562 44.5068 33.4122 52.3501 37.1495 60.5493C40.8867 68.7357 45.8062 75.8161 51.9206 81.778V83.8247L45.2977 87.5874C44.7892 87.8798 44.4333 88.312 44.2172 88.8713C44.0011 89.4306 43.8994 90.0918 43.8994 90.8672C43.8994 91.6426 44.0011 92.4432 44.2172 93.2441C44.4333 94.0449 44.7892 94.8966 45.2977 95.7737L51.9206 107.189L44.9164 113.367C44.4969 113.71 44.1664 114.181 43.963 114.791C43.7469 115.401 43.6834 116.113 43.7724 116.939C43.8487 117.766 44.0392 118.579 44.3443 119.393C44.6367 120.193 45.0435 120.982 45.5519 121.77L58.6579 142.477C59.1664 143.253 59.7257 143.939 60.3104 144.524C60.9079 145.121 61.5435 145.604 62.2299 145.998C62.9036 146.392 63.5138 146.596 64.0731 146.621C64.6197 146.647 65.1029 146.545 65.5351 146.303L70.7469 143.329C71.2553 143.036 71.6368 142.592 71.8911 142.019C72.1453 141.435 72.2723 140.748 72.2723 139.973V93.5364C73.9121 93.8161 75.4758 93.9181 76.9631 93.8164C79.4292 93.6638 81.6918 93.0028 83.7511 91.8333C84.8189 91.2231 85.8358 90.4603 86.7892 89.5705C90.6918 85.9349 92.6367 80.1636 92.6367 72.2822C92.6367 68.6085 92.2172 64.8966 91.3782 61.1593ZM76.696 68.4181C75.9842 70.6426 74.7257 72.2696 72.9079 73.312C69.946 75.0027 66.3358 74.6214 62.0901 72.1681C57.857 69.7274 54.2469 65.939 51.2723 60.8161C48.3104 55.6932 46.8231 50.6977 46.8231 45.8291C46.8231 40.9604 48.3104 37.6808 51.2723 35.9901C53.3189 34.8333 55.658 34.6424 58.3021 35.4305C59.497 35.7864 60.768 36.3586 62.0901 37.1213C66.3358 39.5747 69.946 43.3628 72.9079 48.473C75.8825 53.5959 77.3699 58.5917 77.3699 63.4603C77.3699 65.3544 77.1409 67.007 76.696 68.4181Z" stroke="white" stroke-width="2" stroke-linecap="round" stroke-linejoin="round"/>
<path d="M77.3695 63.4603C77.3695 65.3544 77.1407 67.0072 76.6958 68.4182C75.9839 70.6428 74.7254 72.2696 72.9076 73.312C69.9458 75.0027 66.3356 74.6214 62.0898 72.168C57.8568 69.7274 54.2466 65.939 51.272 60.8161C48.3102 55.6932 46.8229 50.6978 46.8229 45.8292C46.8229 40.9605 48.3102 37.6809 51.272 35.9902C53.3186 34.8334 55.6576 34.6425 58.3017 35.4306C59.4966 35.7866 60.7678 36.3587 62.0898 37.1214C66.3356 39.5748 69.9458 43.3628 72.9076 48.473C75.8822 53.5959 77.3695 58.5917 77.3695 63.4603Z" stroke="white" stroke-width="2" stroke-linecap="round" stroke-linejoin="round"/>
<path d="M118.06 59.5705C118.06 67.4518 116.115 73.2231 112.213 76.8587C110.865 78.1172 109.416 79.0961 107.84 79.7953L107.776 79.8207L97.6959 84.8673L83.7509 91.8333C84.8186 91.2231 85.8356 90.4604 86.789 89.5706C90.6915 85.935 92.6364 80.1637 92.6364 72.2823C92.6364 68.6086 92.217 64.8967 91.378 61.1594C89.9797 54.9688 87.4373 48.6894 83.7381 42.308C80.522 36.7656 76.9374 32.0114 72.9713 28.0326C69.6154 24.6512 65.9925 21.8418 62.09 19.5918C60.5518 18.7019 59.0518 17.9391 57.59 17.3289C51.6408 14.812 46.4035 14.5832 41.84 16.6425L65.878 4.61713C71.8271 1.23577 79.0349 1.9858 87.5137 6.87987C96.0052 11.7866 103.213 19.3504 109.162 29.5961C115.098 39.8419 118.06 49.8332 118.06 59.5705Z" stroke="white" stroke-width="2" stroke-linecap="round" stroke-linejoin="round"/>
<path d="M97.6967 84.8672V127.261C97.6967 128.036 97.5695 128.723 97.3153 129.308C97.0611 129.88 96.6797 130.325 96.1712 130.617L90.9594 133.592L65.5356 146.303L70.7475 143.329C71.256 143.036 71.6373 142.592 71.8916 142.019C72.1458 141.435 72.2729 140.748 72.2729 139.973V93.5364C73.9128 93.8161 75.4763 93.9181 76.9636 93.8164C79.4297 93.6638 81.6923 93.0028 83.7516 91.8333L97.6967 84.8672Z" stroke="white" stroke-width="2" stroke-linecap="round" stroke-linejoin="round"/>
<path d="M83.7507 91.8333L83.3185 92.0493" stroke="white" stroke-width="2" stroke-linecap="round" stroke-linejoin="round"/>
</svg>
