<svg width="17" height="19" viewBox="0 0 17 19" fill="none" xmlns="http://www.w3.org/2000/svg">
<path d="M5 8.68687L6.83205 5.72904C6.94156 5.55224 7 5.3445 7 5.13201V2.22891C7 1.63448 7.44772 1.15259 8 1.15259H9C10.1046 1.15259 11 2.11636 11 3.30524V8.68687M9 8.68687H13.7655C14.9575 8.68687 15.8849 9.80208 15.7532 11.0772L15.1977 16.4589C15.0851 17.549 14.229 18.3738 13.2099 18.3738H9.41421C9.149 18.3738 8.89464 18.2604 8.70711 18.0585L8.29289 17.6127C8.10536 17.4109 7.851 17.2975 7.58579 17.2975H5M2 17.2975H4.85C4.93284 17.2975 5 17.2252 5 17.136V8.84832C5 8.75915 4.93284 8.68687 4.85 8.68687H2C1.44772 8.68687 1 9.16875 1 9.76319V16.2211C1 16.8156 1.44772 17.2975 2 17.2975Z" stroke="#33363F" stroke-opacity="0.5" stroke-linecap="round"/>
</svg>
