<svg width="61" height="12" viewBox="0 0 61 12" fill="none" xmlns="http://www.w3.org/2000/svg">
<path d="M4.424 11.098C3.70533 11.098 3.06133 10.9813 2.492 10.748C1.92267 10.5147 1.46533 10.1693 1.12 9.712C0.784 9.25467 0.606667 8.704 0.588 8.06H3.136C3.17333 8.424 3.29933 8.704 3.514 8.9C3.72867 9.08667 4.00867 9.18 4.354 9.18C4.70867 9.18 4.98867 9.10067 5.194 8.942C5.39933 8.774 5.502 8.54533 5.502 8.256C5.502 8.01333 5.418 7.81267 5.25 7.654C5.09133 7.49533 4.89067 7.36467 4.648 7.262C4.41467 7.15933 4.07867 7.04267 3.64 6.912C3.00533 6.716 2.48733 6.52 2.086 6.324C1.68467 6.128 1.33933 5.83867 1.05 5.456C0.760667 5.07333 0.616 4.574 0.616 3.958C0.616 3.04333 0.947333 2.32933 1.61 1.816C2.27267 1.29333 3.136 1.032 4.2 1.032C5.28267 1.032 6.15533 1.29333 6.818 1.816C7.48067 2.32933 7.83533 3.048 7.882 3.972H5.292C5.27333 3.65467 5.15667 3.40733 4.942 3.23C4.72733 3.04333 4.452 2.95 4.116 2.95C3.82667 2.95 3.59333 3.02933 3.416 3.188C3.23867 3.33733 3.15 3.55667 3.15 3.846C3.15 4.16333 3.29933 4.41067 3.598 4.588C3.89667 4.76533 4.36333 4.95667 4.998 5.162C5.63267 5.37667 6.146 5.582 6.538 5.778C6.93933 5.974 7.28467 6.25867 7.574 6.632C7.86333 7.00533 8.008 7.486 8.008 8.074C8.008 8.634 7.86333 9.14267 7.574 9.6C7.294 10.0573 6.88333 10.4213 6.342 10.692C5.80067 10.9627 5.16133 11.098 4.424 11.098ZM9.00528 7.08C9.00528 6.27733 9.15461 5.57267 9.45328 4.966C9.76128 4.35933 10.1766 3.89267 10.6993 3.566C11.2219 3.23933 11.8053 3.076 12.4493 3.076C12.9999 3.076 13.4806 3.188 13.8913 3.412C14.3113 3.636 14.6333 3.93 14.8573 4.294V3.188H17.2513V11H14.8573V9.894C14.6239 10.258 14.2973 10.552 13.8773 10.776C13.4666 11 12.9859 11.112 12.4353 11.112C11.8006 11.112 11.2219 10.9487 10.6993 10.622C10.1766 10.286 9.76128 9.81467 9.45328 9.208C9.15461 8.592 9.00528 7.88267 9.00528 7.08ZM14.8573 7.094C14.8573 6.49667 14.6893 6.02533 14.3533 5.68C14.0266 5.33467 13.6253 5.162 13.1493 5.162C12.6733 5.162 12.2673 5.33467 11.9313 5.68C11.6046 6.016 11.4413 6.48267 11.4413 7.08C11.4413 7.67733 11.6046 8.15333 11.9313 8.508C12.2673 8.85333 12.6733 9.026 13.1493 9.026C13.6253 9.026 14.0266 8.85333 14.3533 8.508C14.6893 8.16267 14.8573 7.69133 14.8573 7.094ZM22.9032 5.176H21.6152V11H19.2212V5.176H18.3532V3.188H19.2212V2.964C19.2212 2.00267 19.4966 1.27467 20.0472 0.78C20.5979 0.276 21.4052 0.0239995 22.4692 0.0239995C22.6466 0.0239995 22.7772 0.0286661 22.8612 0.0379993V2.068C22.4039 2.04 22.0819 2.10533 21.8952 2.264C21.7086 2.42267 21.6152 2.70733 21.6152 3.118V3.188H22.9032V5.176ZM31.3922 6.968C31.3922 7.192 31.3782 7.42533 31.3502 7.668H25.9322C25.9695 8.15333 26.1235 8.52667 26.3942 8.788C26.6742 9.04 27.0148 9.166 27.4162 9.166C28.0135 9.166 28.4288 8.914 28.6622 8.41H31.2102C31.0795 8.92333 30.8415 9.38533 30.4962 9.796C30.1602 10.2067 29.7355 10.5287 29.2222 10.762C28.7088 10.9953 28.1348 11.112 27.5002 11.112C26.7348 11.112 26.0535 10.9487 25.4562 10.622C24.8588 10.2953 24.3922 9.82867 24.0562 9.222C23.7202 8.61533 23.5522 7.906 23.5522 7.094C23.5522 6.282 23.7155 5.57267 24.0422 4.966C24.3782 4.35933 24.8448 3.89267 25.4422 3.566C26.0395 3.23933 26.7255 3.076 27.5002 3.076C28.2562 3.076 28.9282 3.23467 29.5162 3.552C30.1042 3.86933 30.5615 4.322 30.8882 4.91C31.2242 5.498 31.3922 6.184 31.3922 6.968ZM28.9422 6.338C28.9422 5.92733 28.8022 5.60067 28.5222 5.358C28.2422 5.11533 27.8922 4.994 27.4722 4.994C27.0708 4.994 26.7302 5.11067 26.4502 5.344C26.1795 5.57733 26.0115 5.90867 25.9462 6.338H28.9422ZM39.1231 1.27V2.572H36.5331V11H34.9371V2.572H32.3331V1.27H39.1231ZM40.2075 7.108C40.2075 6.33333 40.3661 5.64733 40.6835 5.05C41.0101 4.45267 41.4488 3.99067 41.9995 3.664C42.5595 3.328 43.1755 3.16 43.8475 3.16C44.4541 3.16 44.9815 3.28133 45.4295 3.524C45.8868 3.75733 46.2508 4.05133 46.5215 4.406V3.286H48.1315V11H46.5215V9.852C46.2508 10.216 45.8821 10.5193 45.4155 10.762C44.9488 11.0047 44.4168 11.126 43.8195 11.126C43.1568 11.126 42.5501 10.958 41.9995 10.622C41.4488 10.2767 41.0101 9.80067 40.6835 9.194C40.3661 8.578 40.2075 7.88267 40.2075 7.108ZM46.5215 7.136C46.5215 6.604 46.4095 6.142 46.1855 5.75C45.9708 5.358 45.6861 5.05933 45.3315 4.854C44.9768 4.64867 44.5941 4.546 44.1835 4.546C43.7728 4.546 43.3901 4.64867 43.0355 4.854C42.6808 5.05 42.3915 5.344 42.1675 5.736C41.9528 6.11867 41.8455 6.576 41.8455 7.108C41.8455 7.64 41.9528 8.10667 42.1675 8.508C42.3915 8.90933 42.6808 9.21733 43.0355 9.432C43.3995 9.63733 43.7821 9.74 44.1835 9.74C44.5941 9.74 44.9768 9.63733 45.3315 9.432C45.6861 9.22667 45.9708 8.928 46.1855 8.536C46.4095 8.13467 46.5215 7.668 46.5215 7.136ZM51.8237 0.64V11H50.2277V0.64H51.8237ZM56.9711 7.15L60.5271 11H58.3711L55.5151 7.682V11H53.9191V0.64H55.5151V6.66L58.3151 3.286H60.5271L56.9711 7.15Z" fill="black"/>
</svg>
