<svg width="156" height="30" viewBox="0 0 156 30" fill="none" xmlns="http://www.w3.org/2000/svg">
<path d="M10.16 29.252C8.408 29.252 6.824 28.952 5.408 28.352C4.016 27.752 2.912 26.888 2.096 25.76C1.28 24.632 0.86 23.3 0.836 21.764H6.236C6.308 22.796 6.668 23.612 7.316 24.212C7.988 24.812 8.9 25.112 10.052 25.112C11.228 25.112 12.152 24.836 12.824 24.284C13.496 23.708 13.832 22.964 13.832 22.052C13.832 21.308 13.604 20.696 13.148 20.216C12.692 19.736 12.116 19.364 11.42 19.1C10.748 18.812 9.812 18.5 8.612 18.164C6.98 17.684 5.648 17.216 4.616 16.76C3.608 16.28 2.732 15.572 1.988 14.636C1.268 13.676 0.908 12.404 0.908 10.82C0.908 9.332 1.28 8.036 2.024 6.932C2.768 5.828 3.812 4.988 5.156 4.412C6.5 3.812 8.036 3.512 9.764 3.512C12.356 3.512 14.456 4.148 16.064 5.42C17.696 6.668 18.596 8.42 18.764 10.676H13.22C13.172 9.812 12.8 9.104 12.104 8.552C11.432 7.976 10.532 7.688 9.404 7.688C8.42 7.688 7.628 7.94 7.028 8.444C6.452 8.948 6.164 9.68 6.164 10.64C6.164 11.312 6.38 11.876 6.812 12.332C7.268 12.764 7.82 13.124 8.468 13.412C9.14 13.676 10.076 13.988 11.276 14.348C12.908 14.828 14.24 15.308 15.272 15.788C16.304 16.268 17.192 16.988 17.936 17.948C18.68 18.908 19.052 20.168 19.052 21.728C19.052 23.072 18.704 24.32 18.008 25.472C17.312 26.624 16.292 27.548 14.948 28.244C13.604 28.916 12.008 29.252 10.16 29.252ZM22.1255 18.956C22.1255 16.94 22.5215 15.152 23.3135 13.592C24.1295 12.032 25.2215 10.832 26.5895 9.992C27.9815 9.152 29.5295 8.732 31.2335 8.732C32.7215 8.732 34.0175 9.032 35.1215 9.632C36.2495 10.232 37.1495 10.988 37.8215 11.9V9.056H42.8975V29H37.8215V26.084C37.1735 27.02 36.2735 27.8 35.1215 28.424C33.9935 29.024 32.6855 29.324 31.1975 29.324C29.5175 29.324 27.9815 28.892 26.5895 28.028C25.2215 27.164 24.1295 25.952 23.3135 24.392C22.5215 22.808 22.1255 20.996 22.1255 18.956ZM37.8215 19.028C37.8215 17.804 37.5815 16.76 37.1015 15.896C36.6215 15.008 35.9735 14.336 35.1575 13.88C34.3415 13.4 33.4655 13.16 32.5295 13.16C31.5935 13.16 30.7295 13.388 29.9375 13.844C29.1455 14.3 28.4975 14.972 27.9935 15.86C27.5135 16.724 27.2735 17.756 27.2735 18.956C27.2735 20.156 27.5135 21.212 27.9935 22.124C28.4975 23.012 29.1455 23.696 29.9375 24.176C30.7535 24.656 31.6175 24.896 32.5295 24.896C33.4655 24.896 34.3415 24.668 35.1575 24.212C35.9735 23.732 36.6215 23.06 37.1015 22.196C37.5815 21.308 37.8215 20.252 37.8215 19.028ZM56.9639 13.196H53.4719V29H48.3599V13.196H46.0919V9.056H48.3599V8.048C48.3599 5.6 49.0559 3.8 50.4479 2.648C51.8399 1.496 53.9399 0.955999 56.7479 1.028V5.276C55.5239 5.252 54.6719 5.456 54.1919 5.888C53.7119 6.32 53.4719 7.1 53.4719 8.228V9.056H56.9639V13.196ZM78.7701 18.596C78.7701 19.316 78.7221 19.964 78.6261 20.54H64.0461C64.1661 21.98 64.6701 23.108 65.5581 23.924C66.4461 24.74 67.5381 25.148 68.8341 25.148C70.7061 25.148 72.0381 24.344 72.8301 22.736H78.2661C77.6901 24.656 76.5861 26.24 74.9541 27.488C73.3221 28.712 71.3181 29.324 68.9421 29.324C67.0221 29.324 65.2941 28.904 63.7581 28.064C62.2461 27.2 61.0581 25.988 60.1941 24.428C59.3541 22.868 58.9341 21.068 58.9341 19.028C58.9341 16.964 59.3541 15.152 60.1941 13.592C61.0341 12.032 62.2101 10.832 63.7221 9.992C65.2341 9.152 66.9741 8.732 68.9421 8.732C70.8381 8.732 72.5301 9.14 74.0181 9.956C75.5301 10.772 76.6941 11.936 77.5101 13.448C78.3501 14.936 78.7701 16.652 78.7701 18.596ZM73.5501 17.156C73.5261 15.86 73.0581 14.828 72.1461 14.06C71.2341 13.268 70.1181 12.872 68.7981 12.872C67.5501 12.872 66.4941 13.256 65.6301 14.024C64.7901 14.768 64.2741 15.812 64.0821 17.156H73.5501ZM99.5488 3.872V7.94H92.8528V29H87.8128V7.94H81.1168V3.872H99.5488ZM101.93 18.956C101.93 16.94 102.326 15.152 103.118 13.592C103.934 12.032 105.026 10.832 106.394 9.992C107.786 9.152 109.334 8.732 111.038 8.732C112.526 8.732 113.822 9.032 114.926 9.632C116.054 10.232 116.954 10.988 117.626 11.9V9.056H122.702V29H117.626V26.084C116.978 27.02 116.078 27.8 114.926 28.424C113.798 29.024 112.49 29.324 111.002 29.324C109.322 29.324 107.786 28.892 106.394 28.028C105.026 27.164 103.934 25.952 103.118 24.392C102.326 22.808 101.93 20.996 101.93 18.956ZM117.626 19.028C117.626 17.804 117.386 16.76 116.906 15.896C116.426 15.008 115.778 14.336 114.962 13.88C114.146 13.4 113.27 13.16 112.334 13.16C111.398 13.16 110.534 13.388 109.742 13.844C108.95 14.3 108.302 14.972 107.798 15.86C107.318 16.724 107.078 17.756 107.078 18.956C107.078 20.156 107.318 21.212 107.798 22.124C108.302 23.012 108.95 23.696 109.742 24.176C110.558 24.656 111.422 24.896 112.334 24.896C113.27 24.896 114.146 24.668 114.962 24.212C115.778 23.732 116.426 23.06 116.906 22.196C117.386 21.308 117.626 20.252 117.626 19.028ZM132.665 2.36V29H127.625V2.36H132.665ZM149.452 29L142.684 20.504V29H137.644V2.36H142.684V17.516L149.38 9.056H155.932L147.148 19.064L156.004 29H149.452Z" fill="white"/>
</svg>
