<svg width="18" height="15" viewBox="0 0 18 15" fill="none" xmlns="http://www.w3.org/2000/svg">
<path d="M0.0132028 4.25774C0 4.81048 0 5.438 0 6.15385V8.20513C0 11.1061 0 12.5566 0.87868 13.4578C1.75736 14.359 3.17157 14.359 6 14.359H12C14.8284 14.359 16.2426 14.359 17.1213 13.4578C18 12.5566 18 11.1061 18 8.20513V6.15385C18 5.438 18 4.81048 17.9868 4.25774L9.97129 8.82498C9.36724 9.16916 8.63276 9.16916 8.02871 8.82498L0.0132028 4.25774Z" fill="#222222" fill-opacity="0.2"/>
<path d="M0.242967 2.08175C0.325845 2.1031 0.407399 2.13577 0.485643 2.18035L9 7.03184L17.5144 2.18035C17.5926 2.13577 17.6742 2.1031 17.757 2.08176C17.6271 1.59609 17.4276 1.21529 17.1213 0.90121C16.2426 0 14.8284 0 12 0H6C3.17157 0 1.75736 0 0.87868 0.90121C0.572448 1.21529 0.372942 1.59609 0.242967 2.08175Z" fill="#222222" fill-opacity="0.2"/>
</svg>
