<svg width="14" height="17" viewBox="0 0 14 17" fill="none" xmlns="http://www.w3.org/2000/svg">
<path d="M0.274461 5.99395C0 6.57544 0 7.23697 0 8.56004V12.6921C0 14.5295 0 15.4482 0.585786 16.0191C1.11733 16.537 1.94285 16.585 3.5 16.5894V11.7177C3.5 10.6413 4.39543 9.7688 5.5 9.7688H8.5C9.60457 9.7688 10.5 10.6413 10.5 11.7177V16.5894C12.0572 16.585 12.8827 16.537 13.4142 16.0191C14 15.4482 14 14.5295 14 12.6921V8.56004C14 7.23697 14 6.57544 13.7255 5.99395C13.4511 5.41246 12.9356 4.98194 11.9047 4.1209L10.9047 3.28565C9.04143 1.72933 8.10977 0.951172 7 0.951172C5.89023 0.951172 4.95857 1.72933 3.09525 3.28565L2.09525 4.1209C1.06437 4.98194 0.548923 5.41246 0.274461 5.99395Z" fill="black" fill-opacity="0.2"/>
<path d="M8.5 16.5899V11.7177H5.5V16.5899H8.5Z" fill="black" fill-opacity="0.2"/>
</svg>
