<svg width="10" height="6" viewBox="0 0 19 15" fill="none" xmlns="http://www.w3.org/2000/svg">
<path d="M2 6L1.29289 5.29289L0.585786 6L1.29289 6.70711L2 6ZM12 6V7V6ZM17 14C17 14.5523 17.4477 15 18 15C18.5523 15 19 14.5523 19 14H17ZM7.70711 10.2929L2.70711 5.29289L1.29289 6.70711L6.29289 11.7071L7.70711 10.2929ZM2.70711 6.70711L7.70711 1.70711L6.29289 0.292893L1.29289 5.29289L2.70711 6.70711ZM2 7L12 7V5L2 5L2 7ZM17 12V14H19V12H17ZM12 7C14.7614 7 17 9.23858 17 12H19C19 8.13401 15.866 5 12 5V7Z" fill="black"/>
</svg>
