<svg width="18" height="17" viewBox="0 0 18 17" fill="none" xmlns="http://www.w3.org/2000/svg">
<path d="M16.6515 15.5523C17.2043 15.443 17.5336 14.8947 17.2589 14.4269C16.6533 13.3958 15.6993 12.4898 14.4788 11.7993C12.907 10.91 10.9812 10.428 8.99997 10.428C7.01877 10.428 5.09292 10.91 3.52112 11.7993C2.30069 12.4898 1.34666 13.3958 0.741081 14.4269C0.466383 14.8946 0.795618 15.443 1.34843 15.5523C6.39524 16.5493 11.6047 16.5493 16.6515 15.5523Z" fill="#222222" fill-opacity="0.2"/>
<path d="M14 4.73999C14 7.35781 11.7614 9.47997 9 9.47997C6.23857 9.47997 4 7.35781 4 4.73999C4 2.12216 6.23857 0 9 0C11.7614 0 14 2.12216 14 4.73999Z" fill="#222222" fill-opacity="0.2"/>
</svg>
